<svg id="Layer_2" data-name="Layer 2" xmlns="http://www.w3.org/2000/svg" viewBox="0 0 140 140"><path d="M133.85,108.2A5.19,5.19,0,0,1,129,105c-3.07-7.59-5.33-18.73-7.51-29.51-1.67-8.25-3.4-16.79-5.41-23.3-2.48-8-4.4-9.68-4.83-10-.7.15-2.23,1.46-4.12,5.69-2.2,4.88-4.06,11.79-5.86,18.48-4.4,16.32-8.55,31.74-20,31.74-11,0-15.7-11.63-19.84-21.89C58.53,69,55.24,60.81,51.23,60.81s-6.7,4.25-10.46,11.25c-4,7.45-9,16.71-19.6,16.71-10,0-15-6.24-19.06-11.25A5.19,5.19,0,0,1,10.19,71c3.8,4.72,6.19,7.39,11,7.39,4.12,0,6.7-4.25,10.46-11.25,4-7.44,9-16.71,19.6-16.71,11,0,15.7,11.63,19.83,21.89C74,79.54,77.27,87.72,81.28,87.72c.57,0,2.17-1.18,4.18-5.65,2.18-4.86,4-11.75,5.83-18.42,4.42-16.38,8.59-31.85,20.12-31.85,11.86,0,15.58,18.35,20.29,41.59,2.09,10.32,4.25,21,7,27.68a5.19,5.19,0,0,1-4.81,7.13Z" fill="#231f20"/></svg>