<svg id="Layer_2" data-name="Layer 2" xmlns="http://www.w3.org/2000/svg" viewBox="0 0 140 140"><path d="M82.5,127.89a5.19,5.19,0,0,1-.76-10.32,48,48,0,0,0,0-94.89,5.19,5.19,0,1,1,1.53-10.26,58.35,58.35,0,0,1,0,115.41A5.09,5.09,0,0,1,82.5,127.89Z" fill="#fff"/><path d="M82.5,107.7a5.18,5.18,0,0,1-.76-10.31,27.57,27.57,0,0,0,0-54.53A5.19,5.19,0,1,1,83.27,32.6a37.95,37.95,0,0,1,0,75.05A6.78,6.78,0,0,1,82.5,107.7Z" fill="#fff"/><path d="M82.5,88.46a5.19,5.19,0,0,1-.76-10.32,8.11,8.11,0,0,0,0-16,5.19,5.19,0,1,1,1.53-10.26,18.48,18.48,0,0,1,0,36.55A5.09,5.09,0,0,1,82.5,88.46Z" fill="#fff"/><path d="M57.5,127.89a5.09,5.09,0,0,1-.77-.06,58.35,58.35,0,0,1,0-115.41,5.19,5.19,0,1,1,1.53,10.26,48,48,0,0,0,0,94.89,5.19,5.19,0,0,1-.76,10.32Z" fill="#fff"/><path d="M57.5,107.7a6.78,6.78,0,0,1-.77,0,37.95,37.95,0,0,1,0-75.05,5.19,5.19,0,1,1,1.53,10.26,27.57,27.57,0,0,0,0,54.53,5.18,5.18,0,0,1-.76,10.31Z" fill="#fff"/><path d="M57.5,88.46a5.09,5.09,0,0,1-.77-.06,18.48,18.48,0,0,1,0-36.55,5.19,5.19,0,1,1,1.53,10.26,8.11,8.11,0,0,0,0,16,5.19,5.19,0,0,1-.76,10.32Z" fill="#fff"/></svg>