<svg id="Layer_2" data-name="Layer 2" xmlns="http://www.w3.org/2000/svg" viewBox="0 0 140 140"><path d="M48.25,48.19H21.67a4.77,4.77,0,0,1,0-9.54H48.25a4.77,4.77,0,0,1,0,9.54Z" fill="#231f20"/><path d="M50.94,61.48H37.65a4.77,4.77,0,1,1,0-9.54H50.94a4.77,4.77,0,1,1,0,9.54Z" fill="#231f20"/><path d="M70.88,88.06H31a4.77,4.77,0,1,1,0-9.54H70.88a4.77,4.77,0,0,1,0,9.54Z" fill="#231f20"/><path d="M75.43,101.35H62.14a4.77,4.77,0,0,1,0-9.54H75.43a4.77,4.77,0,1,1,0,9.54Z" fill="#231f20"/><path d="M77.52,74.77H50.94a4.77,4.77,0,0,1,0-9.54H77.52a4.77,4.77,0,1,1,0,9.54Z" fill="#231f20"/><path d="M113.44,74.77H100.15a4.77,4.77,0,0,1,0-9.54h13.29a4.77,4.77,0,1,1,0,9.54Z" fill="#231f20"/><path d="M106.8,88.06H93.51a4.77,4.77,0,1,1,0-9.54H106.8a4.77,4.77,0,0,1,0,9.54Z" fill="#231f20"/><path d="M118.33,101.35H105a4.77,4.77,0,0,1,0-9.54h13.29a4.77,4.77,0,0,1,0,9.54Z" fill="#231f20"/><path d="M37.65,101.35H24.36a4.77,4.77,0,0,1,0-9.54H37.65a4.77,4.77,0,1,1,0,9.54Z" fill="#231f20"/><path d="M104.1,61.48H77.52a4.77,4.77,0,1,1,0-9.54H104.1a4.77,4.77,0,1,1,0,9.54Z" fill="#231f20"/><path d="M80.22,48.19H66.93a4.77,4.77,0,1,1,0-9.54H80.22a4.77,4.77,0,0,1,0,9.54Z" fill="#231f20"/><path d="M109.74,48.19H96.45a4.77,4.77,0,1,1,0-9.54h13.29a4.77,4.77,0,1,1,0,9.54Z" fill="#231f20"/></svg>