<svg xmlns="http://www.w3.org/2000/svg" viewBox="0 0 140 140">
	<path d="M115.5 74.8H96.8a4.8 4.8 0 1 1 0-9.6h18.5a4.8 4.8 0 1 1 0 9.6Z" fill="#fff"/>
	<path d="M106.2 84a4.8 4.8 0 0 1-4.8-4.7V60.7a4.8 4.8 0 0 1 9.5 0v18.6a4.8 4.8 0 0 1-4.8 4.8Zm-78.3 17.3a4.8 4.8 0 0 1 0-9.5c21.4 0 31.8-6.1 42.9-12.6 3.7-2.2 7.5-4.4 11.7-6.4a4.8 4.8 0 0 1 4.1 8.6c-3.8 1.8-7.3 3.9-11 6a82 82 0 0 1-47.7 14Zm56.6-33.6a4.8 4.8 0 0 1-2-.5c-4.2-2-8-4.2-11.7-6.4a73.1 73.1 0 0 0-42.9-12.6 4.8 4.8 0 1 1 0-9.6c24 0 36 7.1 47.7 14 3.7 2.1 7.2 4.2 11 6a4.8 4.8 0 0 1-2 9Z" fill="#fff"/>
	<path d="M28 54.8a4.8 4.8 0 0 1-4.8-4.7V36.8a4.8 4.8 0 0 1 9.5 0V50a4.8 4.8 0 0 1-4.8 4.7Zm0 53.2a4.8 4.8 0 0 1-4.8-4.8V90a4.8 4.8 0 1 1 9.5 0v13.3A4.8 4.8 0 0 1 28 108Z" fill="#fff"/>
</svg>
