<svg id="Layer_2" data-name="Layer 2" xmlns="http://www.w3.org/2000/svg" viewBox="0 0 140 140"><path d="M115.45,74.77H96.86a4.77,4.77,0,1,1,0-9.54h18.59a4.77,4.77,0,1,1,0,9.54Z" fill="#fff"/><path d="M106.15,84.07a4.78,4.78,0,0,1-4.77-4.77V60.7a4.78,4.78,0,0,1,9.55,0V79.3A4.78,4.78,0,0,1,106.15,84.07Z" fill="#fff"/><path d="M27.94,101.35a4.77,4.77,0,0,1,0-9.54c21.33,0,31.78-6.14,42.84-12.63,3.69-2.17,7.5-4.41,11.72-6.42a4.77,4.77,0,0,1,4.11,8.62c-3.86,1.83-7.32,3.87-11,6C63.94,94.26,51.87,101.35,27.94,101.35Z" fill="#fff"/><path d="M84.55,67.7a4.85,4.85,0,0,1-2-.46c-4.22-2-8-4.25-11.72-6.42C59.72,54.33,49.27,48.19,27.94,48.19a4.77,4.77,0,1,1,0-9.54c23.93,0,36,7.09,47.68,13.94,3.67,2.16,7.13,4.2,11,6a4.77,4.77,0,0,1-2.06,9.08Z" fill="#fff"/><path d="M27.94,54.84a4.78,4.78,0,0,1-4.77-4.78V36.77a4.77,4.77,0,0,1,9.54,0V50.06A4.77,4.77,0,0,1,27.94,54.84Z" fill="#fff"/><path d="M27.94,108a4.78,4.78,0,0,1-4.77-4.77V89.94a4.77,4.77,0,1,1,9.54,0v13.29A4.77,4.77,0,0,1,27.94,108Z" fill="#fff"/></svg>