<svg id="Layer_2" data-name="Layer 2" xmlns="http://www.w3.org/2000/svg" viewBox="0 0 140 140"><path d="M127.3,73.91H82.05a4.77,4.77,0,1,1,0-9.54H127.3a4.77,4.77,0,1,1,0,9.54Z" fill="#fff"/><path d="M127.3,87.2H82.05a4.77,4.77,0,1,1,0-9.54H127.3a4.77,4.77,0,1,1,0,9.54Z" fill="#fff"/><path d="M127.3,100.49H82.05a4.77,4.77,0,1,1,0-9.54H127.3a4.77,4.77,0,1,1,0,9.54Z" fill="#fff"/><path d="M127.3,113.78H82.05a4.77,4.77,0,1,1,0-9.54H127.3a4.77,4.77,0,1,1,0,9.54Z" fill="#fff"/><path d="M127.3,127.07H82.05a4.77,4.77,0,1,1,0-9.54H127.3a4.77,4.77,0,1,1,0,9.54Z" fill="#fff"/><path d="M59.91,20.75H14.66a4.78,4.78,0,1,1,0-9.55H59.91a4.78,4.78,0,1,1,0,9.55Z" fill="#fff"/><path d="M59.91,34H14.66a4.78,4.78,0,1,1,0-9.55H59.91a4.78,4.78,0,1,1,0,9.55Z" fill="#fff"/><path d="M59.91,47.33H14.66a4.78,4.78,0,1,1,0-9.55H59.91a4.78,4.78,0,1,1,0,9.55Z" fill="#fff"/><path d="M59.91,60.62H14.66a4.78,4.78,0,1,1,0-9.55H59.91a4.78,4.78,0,1,1,0,9.55Z" fill="#fff"/><path d="M59.91,73.91H14.66a4.77,4.77,0,1,1,0-9.54H59.91a4.77,4.77,0,1,1,0,9.54Z" fill="#fff"/><path d="M59.91,87.2H14.66a4.77,4.77,0,1,1,0-9.54H59.91a4.77,4.77,0,1,1,0,9.54Z" fill="#fff"/><path d="M59.91,100.49H14.66a4.77,4.77,0,1,1,0-9.54H59.91a4.77,4.77,0,1,1,0,9.54Z" fill="#fff"/><path d="M59.91,113.78H14.66a4.77,4.77,0,1,1,0-9.54H59.91a4.77,4.77,0,1,1,0,9.54Z" fill="#fff"/><path d="M59.91,127.07H14.66a4.77,4.77,0,1,1,0-9.54H59.91a4.77,4.77,0,1,1,0,9.54Z" fill="#fff"/></svg>