<svg xmlns="http://www.w3.org/2000/svg" viewBox="0 0 140 140">
	<path d="M127.3 74H82a4.8 4.8 0 1 1 0-9.6h45.3a4.8 4.8 0 1 1 0 9.5Zm0 13.2H82a4.8 4.8 0 1 1 0-9.5h45.3a4.8 4.8 0 1 1 0 9.5Zm0 13.3H82a4.8 4.8 0 1 1 0-9.6h45.3a4.8 4.8 0 1 1 0 9.6Zm0 13.3H82a4.8 4.8 0 1 1 0-9.6h45.3a4.8 4.8 0 1 1 0 9.6Zm0 13.3H82a4.8 4.8 0 1 1 0-9.6h45.3a4.8 4.8 0 1 1 0 9.6ZM59.9 20.8H14.7a4.8 4.8 0 1 1 0-9.6h45.2a4.8 4.8 0 1 1 0 9.6ZM60 34H14.7a4.8 4.8 0 1 1 0-9.6h45.2a4.8 4.8 0 1 1 0 9.6Zm0 13.3H14.7a4.8 4.8 0 1 1 0-9.5h45.2a4.8 4.8 0 1 1 0 9.5Zm0 13.3H14.7a4.8 4.8 0 1 1 0-9.5h45.2a4.8 4.8 0 1 1 0 9.5ZM60 74H14.7a4.8 4.8 0 1 1 0-9.5h45.2a4.8 4.8 0 1 1 0 9.5Zm0 13.3H14.7a4.8 4.8 0 1 1 0-9.5h45.2a4.8 4.8 0 1 1 0 9.5Zm0 13.3H14.7a4.8 4.8 0 1 1 0-9.6h45.2a4.8 4.8 0 1 1 0 9.6Zm0 13.3H14.7a4.8 4.8 0 1 1 0-9.6h45.2a4.8 4.8 0 1 1 0 9.6Zm0 13.3H14.7a4.8 4.8 0 1 1 0-9.6h45.2a4.8 4.8 0 1 1 0 9.6Z" fill="#fff"/>
</svg>
