<svg xmlns="http://www.w3.org/2000/svg" viewBox="0 0 140 140">
	<path d="M114.7 48.2h-90a4.8 4.8 0 1 1 0-9.6h90a4.8 4.8 0 1 1 0 9.6Zm0 26.6h-90a4.8 4.8 0 1 1 0-9.6h90a4.8 4.8 0 1 1 0 9.6Zm0 26.5h-90a4.8 4.8 0 1 1 0-9.5h90a4.8 4.8 0 1 1 0 9.6Z" fill="#fff"/>
	<path d="M94.6 81.4a4.8 4.8 0 0 1-4.8-4.8V63.5a4.8 4.8 0 0 1 9.6 0v13.3a4.8 4.8 0 0 1-4.8 4.7ZM78.9 108a4.8 4.8 0 0 1-4.8-4.8V90a4.8 4.8 0 1 1 9.6 0v13.3a4.8 4.8 0 0 1-4.8 4.8ZM50.4 54.8a4.8 4.8 0 0 1-4.8-4.7V36.8a4.8 4.8 0 0 1 9.5 0V50a4.8 4.8 0 0 1-4.7 4.7Z" fill="#fff"/>
</svg>
