<svg id="Layer_2" data-name="Layer 2" xmlns="http://www.w3.org/2000/svg" viewBox="0 0 140 140"><path d="M114.71,48.19h-90a4.77,4.77,0,1,1,0-9.54h90a4.77,4.77,0,1,1,0,9.54Z" fill="#231f20"/><path d="M114.71,74.77h-90a4.77,4.77,0,1,1,0-9.54h90a4.77,4.77,0,1,1,0,9.54Z" fill="#231f20"/><path d="M114.71,101.35h-90a4.77,4.77,0,1,1,0-9.54h90a4.77,4.77,0,1,1,0,9.54Z" fill="#231f20"/><path d="M94.58,81.42a4.78,4.78,0,0,1-4.77-4.77V63.35a4.77,4.77,0,0,1,9.54,0v13.3A4.77,4.77,0,0,1,94.58,81.42Z" fill="#231f20"/><path d="M78.91,108a4.78,4.78,0,0,1-4.78-4.77V89.94a4.78,4.78,0,1,1,9.55,0v13.29A4.78,4.78,0,0,1,78.91,108Z" fill="#231f20"/><path d="M50.36,54.84a4.78,4.78,0,0,1-4.78-4.78V36.77a4.78,4.78,0,0,1,9.55,0V50.06A4.78,4.78,0,0,1,50.36,54.84Z" fill="#231f20"/></svg>