<svg id="Layer_2" data-name="Layer 2" xmlns="http://www.w3.org/2000/svg" viewBox="0 0 140 140"><path d="M39.06,127.16a4.77,4.77,0,0,1-4.78-4.77V16.07a4.78,4.78,0,1,1,9.55,0V122.39A4.77,4.77,0,0,1,39.06,127.16Z" fill="#231f20"/><path d="M61.69,100.58a4.77,4.77,0,0,1-4.78-4.77V42.65a4.78,4.78,0,1,1,9.55,0V95.81A4.77,4.77,0,0,1,61.69,100.58Z" fill="#231f20"/><path d="M84.31,87.29a4.78,4.78,0,0,1-4.77-4.77V55.94a4.78,4.78,0,1,1,9.55,0V82.52A4.78,4.78,0,0,1,84.31,87.29Z" fill="#231f20"/><path d="M106.94,80.65a4.78,4.78,0,0,1-4.77-4.78V62.58a4.78,4.78,0,0,1,9.55,0V75.87A4.78,4.78,0,0,1,106.94,80.65Z" fill="#231f20"/></svg>