<svg id="Layer_2" data-name="Layer 2" xmlns="http://www.w3.org/2000/svg" viewBox="0 0 140 140"><path d="M61.58,114.94H32.81a5.07,5.07,0,0,1,0-10.13H61.58a5.07,5.07,0,1,1,0,10.13Z" fill="#231f20"/><path d="M61.58,88.35H32.81a5.06,5.06,0,0,1,0-10.12H61.58a5.06,5.06,0,1,1,0,10.12Z" fill="#231f20"/><path d="M61.58,61.77H32.81a5.06,5.06,0,0,1,0-10.12H61.58a5.06,5.06,0,1,1,0,10.12Z" fill="#231f20"/><path d="M61.58,35.19H32.81a5.07,5.07,0,0,1,0-10.13H61.58a5.07,5.07,0,1,1,0,10.13Z" fill="#231f20"/><path d="M107.19,114.94H78.42a5.07,5.07,0,1,1,0-10.13h28.77a5.07,5.07,0,0,1,0,10.13Z" fill="#231f20"/><path d="M107.19,81.48H78.42a5.07,5.07,0,1,1,0-10.13h28.77a5.07,5.07,0,0,1,0,10.13Z" fill="#231f20"/><path d="M107.19,48.48H78.42a5.07,5.07,0,1,1,0-10.13h28.77a5.07,5.07,0,0,1,0,10.13Z" fill="#231f20"/></svg>