<svg id="Layer_2" data-name="Layer 2" xmlns="http://www.w3.org/2000/svg" viewBox="0 0 140 140"><path d="M29.36,123.58a1.52,1.52,0,0,1-1.46-1.14l-1.19-4.67-1.44,3.51a1.51,1.51,0,0,1-2.9-.57V107.35l-.23.71a1.51,1.51,0,0,1-2.95-.42L17.13,118.5a1.5,1.5,0,0,1-1.61,1.22,1.51,1.51,0,0,1-1.39-1.47l-.41-18.76-.27,1.16a1.49,1.49,0,0,1-1.54,1.17,1.51,1.51,0,0,1-1.42-1.33l-.43-3.41-.59,2a1.54,1.54,0,0,1-1.62,1.06,1.52,1.52,0,0,1-1.34-1.4l-1.57-23L3.86,80.6A1.51,1.51,0,1,1,.91,80L4.25,64.75a1.51,1.51,0,0,1,3,.22L9,90.27l.27-.89a1.51,1.51,0,0,1,2.95.25l.25,2.05,1.07-4.59a1.49,1.49,0,0,1,1.62-1.16,1.52,1.52,0,0,1,1.36,1.47l.36,16.44,1.93-10.15a1.51,1.51,0,0,1,3,.23l.17,5.1.51-1.56a1.51,1.51,0,0,1,2.95.47V113l.26-.65a1.55,1.55,0,0,1,1.51-.94,1.52,1.52,0,0,1,1.36,1.14l.63,2.51,2.39-12.58a1.51,1.51,0,0,1,3-.08l1.84,7.39,5.92-19.32a1.51,1.51,0,0,1,3,.29l2,18.3.82-6.48a1.51,1.51,0,0,1,2.93-.3l.68,2,1.57-20.47a1.5,1.5,0,0,1,1.45-1.39,1.53,1.53,0,0,1,1.55,1.29l2.08,14.32,2-15.66a1.51,1.51,0,0,1,2.9-.36l1.41,3.55,1.12-15a1.49,1.49,0,0,1,1-1.33,1.51,1.51,0,0,1,1.62.47l2.78,3.31L72.71,65a1.51,1.51,0,0,1,2.93-.16l1.6,5.21L78,47.17a1.51,1.51,0,0,1,2.83-.69L82,48.58l1.1-27.22a1.51,1.51,0,0,1,1.39-1.44,1.49,1.49,0,0,1,1.6,1.2l2.25,11,2.64-12.69a1.51,1.51,0,0,1,3,.09l2.15,14.24,3.8-19.07a1.45,1.45,0,0,1,1.49-1.22,1.52,1.52,0,0,1,1.48,1.24l1.44,8,.89-2.43a1.51,1.51,0,0,1,2.89.18l.64,2.78,1.86-7a1.51,1.51,0,0,1,3,.28l1.68,22,1.42-10.27A1.5,1.5,0,0,1,118.1,27h0a1.5,1.5,0,0,1,1.48,1.34l.8,7L123.09,28a1.51,1.51,0,0,1,2.92.36L127.55,43l1.92-6a1.51,1.51,0,0,1,2.95.4l.87,21.45,1.54-3a1.51,1.51,0,0,1,2.84.55l1.45,14.93a1.51,1.51,0,0,1-3,.29l-1-9.83-1.81,3.51a1.51,1.51,0,0,1-2.85-.63L129.75,46l-1.5,4.7a1.51,1.51,0,0,1-2.94-.3l-1.62-15.3-2.64,7.22a1.52,1.52,0,0,1-1.6,1A1.5,1.5,0,0,1,118.13,42L118,40.53l-1.72,12.38a1.5,1.5,0,0,1-1.49,1.3h0a1.51,1.51,0,0,1-1.46-1.39l-2.07-27.21L110,29.9A1.47,1.47,0,0,1,108.54,31a1.51,1.51,0,0,1-1.45-1.17l-.85-3.73-1,2.88a1.49,1.49,0,0,1-1.55,1,1.52,1.52,0,0,1-1.36-1.23l-1-5.7L97.32,42.8A1.53,1.53,0,0,1,95.81,44a1.5,1.5,0,0,1-1.46-1.28L92.17,28.27,89.75,39.88a1.5,1.5,0,0,1-1.48,1.2h0a1.51,1.51,0,0,1-1.48-1.2l-1.22-6-.82,20.19a1.51,1.51,0,0,1-2.83.68l-1.12-2L80,79.24a1.51,1.51,0,0,1-3,.39l-2.48-8.08-1,5.24a1.51,1.51,0,0,1-2.64.69l-2.44-2.91L67.13,92.38a1.5,1.5,0,0,1-1.28,1.38,1.52,1.52,0,0,1-1.63-.93l-1.68-4.24-2.71,20.75a1.52,1.52,0,0,1-1.48,1.32h0a1.51,1.51,0,0,1-1.49-1.29l-1.7-11.69L54.05,112a1.51,1.51,0,0,1-2.94.37l-1-2.82-1.61,12.73a1.52,1.52,0,0,1-1.5,1.32h0a1.51,1.51,0,0,1-1.49-1.35L43,98.43l-5.35,17.48A1.57,1.57,0,0,1,36.14,117a1.51,1.51,0,0,1-1.42-1.15l-1.5-6-2.37,12.5a1.51,1.51,0,0,1-1.44,1.23Z" fill="#fff"/></svg>