<svg xmlns="http://www.w3.org/2000/svg" viewBox="0 0 140 140">
	<path d="M29.4 123.6a1.5 1.5 0 0 1-1.5-1.2l-1.2-4.6-1.4 3.5a1.5 1.5 0 0 1-3-.6v-13.4l-.2.8a1.5 1.5 0 0 1-3-.5l-2 10.9a1.5 1.5 0 0 1-1.6 1.2 1.5 1.5 0 0 1-1.4-1.5l-.4-18.7-.3 1.1a1.5 1.5 0 0 1-1.5 1.2 1.5 1.5 0 0 1-1.4-1.3L10 97l-.6 2a1.5 1.5 0 0 1-1.6 1 1.5 1.5 0 0 1-1.4-1.4L5 75.7l-1 4.9a1.5 1.5 0 1 1-3-.6l3.4-15.3a1.5 1.5 0 0 1 3 .3L9 90.3l.3-1a1.5 1.5 0 0 1 3 .3l.2 2 1-4.5a1.5 1.5 0 0 1 1.7-1.2 1.5 1.5 0 0 1 1.3 1.5l.4 16.4 2-10.1a1.5 1.5 0 0 1 3 .2V99l.6-1.5a1.5 1.5 0 0 1 3 .4V113l.2-.7a1.6 1.6 0 0 1 1.5-.9 1.5 1.5 0 0 1 1.4 1.1l.6 2.6 2.4-12.6a1.5 1.5 0 0 1 3-.1l1.8 7.4 6-19.3a1.5 1.5 0 0 1 3 .3l2 18.3.8-6.5a1.5 1.5 0 0 1 2.9-.3l.7 2 1.6-20.5a1.5 1.5 0 0 1 1.4-1.4 1.5 1.5 0 0 1 1.6 1.3l2 14.3 2-15.6a1.5 1.5 0 0 1 3-.4l1.3 3.6 1.2-15a1.5 1.5 0 0 1 1-1.4 1.5 1.5 0 0 1 1.6.5l2.8 3.3 1.4-8a1.5 1.5 0 0 1 3-.2l1.5 5.3.8-23a1.5 1.5 0 0 1 2.8-.6l1.2 2 1.1-27.1a1.5 1.5 0 0 1 1.4-1.5 1.5 1.5 0 0 1 1.6 1.2l2.2 11L91 19.4a1.5 1.5 0 0 1 3 .1l2 14.3 3.8-19.1a1.4 1.4 0 0 1 1.5-1.2 1.5 1.5 0 0 1 1.5 1.2l1.4 8 1-2.4a1.5 1.5 0 0 1 2.8.2l.7 2.7 1.8-7a1.5 1.5 0 0 1 3 .3l1.7 22 1.4-10.3A1.5 1.5 0 0 1 118 27a1.5 1.5 0 0 1 1.5 1.3l.8 7L123 28a1.5 1.5 0 0 1 3 .4l1.5 14.6 1.9-6a1.5 1.5 0 0 1 3 .4l.8 21.4 1.5-3a1.5 1.5 0 0 1 2.9.6l1.4 15a1.5 1.5 0 0 1-3 .2l-1-9.8-1.8 3.5a1.5 1.5 0 0 1-2.8-.6l-.8-18.7-1.4 4.7a1.5 1.5 0 0 1-3-.3l-1.6-15.3-2.7 7.2a1.5 1.5 0 0 1-1.6 1A1.5 1.5 0 0 1 118 42l-.1-1.5-1.7 12.4a1.5 1.5 0 0 1-1.5 1.3 1.5 1.5 0 0 1-1.5-1.4l-2-27.2L110 30a1.5 1.5 0 0 1-1.5 1.1 1.5 1.5 0 0 1-1.4-1.2l-.9-3.7-1 2.9a1.5 1.5 0 0 1-1.5 1 1.5 1.5 0 0 1-1.4-1.3l-1-5.7-4 19.8a1.5 1.5 0 0 1-1.5 1.2 1.5 1.5 0 0 1-1.4-1.3l-2.2-14.4L89.7 40a1.5 1.5 0 0 1-1.4 1.2 1.5 1.5 0 0 1-1.5-1.2l-1.2-6-.9 20.2a1.5 1.5 0 0 1-2.8.7l-1.1-2-.8 26.4a1.5 1.5 0 0 1-3 .4l-2.5-8-1 5.2a1.5 1.5 0 0 1-2.6.7l-2.5-3-1.3 17.9a1.5 1.5 0 0 1-1.2 1.4 1.5 1.5 0 0 1-1.7-1l-1.7-4.2-2.7 20.7a1.5 1.5 0 0 1-1.4 1.4 1.5 1.5 0 0 1-1.5-1.3l-1.7-11.7L54 112a1.5 1.5 0 0 1-2.9.4l-1-2.9-1.6 12.8a1.5 1.5 0 0 1-1.5 1.3 1.5 1.5 0 0 1-1.5-1.3L43 98.4 37.7 116a1.6 1.6 0 0 1-1.7 1 1.5 1.5 0 0 1-1.4-1.1l-1.5-6-2.4 12.4a1.5 1.5 0 0 1-1.4 1.3Z" fill="#fff"/>
</svg>
