<svg id="Layer_2" data-name="Layer 2" xmlns="http://www.w3.org/2000/svg" viewBox="0 0 140 140"><path d="M117.35,101.35c-24.84,0-37.62-15-48.89-28.26-10.91-12.8-21.2-24.9-41.63-24.9a4.77,4.77,0,0,1,0-9.54c24.84,0,37.62,15,48.89,28.26,10.91,12.8,21.2,24.9,41.63,24.9a4.77,4.77,0,1,1,0,9.54Z" fill="#fff"/><path d="M117.35,74.77c-23.93,0-36-7.09-47.68-13.95C58.61,54.33,48.16,48.19,26.83,48.19a4.77,4.77,0,0,1,0-9.54c23.93,0,36,7.09,47.68,13.94C85.57,59.09,96,65.23,117.35,65.23a4.77,4.77,0,1,1,0,9.54Z" fill="#fff"/><path d="M117.35,48.19H26.83a4.77,4.77,0,0,1,0-9.54h90.52a4.77,4.77,0,1,1,0,9.54Z" fill="#fff"/><path d="M117.35,54.84a4.77,4.77,0,0,1-4.77-4.78V36.77a4.77,4.77,0,0,1,9.54,0V50.06A4.78,4.78,0,0,1,117.35,54.84Z" fill="#fff"/><path d="M117.35,81.42a4.77,4.77,0,0,1-4.77-4.77V63.35a4.77,4.77,0,0,1,9.54,0v13.3A4.78,4.78,0,0,1,117.35,81.42Z" fill="#fff"/><path d="M117.35,108a4.77,4.77,0,0,1-4.77-4.77V89.94a4.77,4.77,0,1,1,9.54,0v13.29A4.78,4.78,0,0,1,117.35,108Z" fill="#fff"/><path d="M26.83,54.84a4.78,4.78,0,0,1-4.77-4.78V36.77a4.77,4.77,0,0,1,9.54,0V50.06A4.77,4.77,0,0,1,26.83,54.84Z" fill="#fff"/></svg>