<svg xmlns="http://www.w3.org/2000/svg" viewBox="0 0 140 140">
	<path d="M117.3 101.3c-24.8 0-37.6-15-48.8-28.2-11-12.8-21.2-25-41.7-25a4.8 4.8 0 0 1 0-9.5c24.9 0 37.6 15 49 28.3 10.8 12.8 21.1 25 41.6 25a4.8 4.8 0 1 1 0 9.4Z" fill="#fff"/>
	<path d="M117.3 74.8c-23.9 0-36-7.1-47.6-14a73.1 73.1 0 0 0-42.9-12.6 4.8 4.8 0 0 1 0-9.6c24 0 36 7.1 47.7 14a73 73 0 0 0 42.8 12.6 4.8 4.8 0 1 1 0 9.6Z" fill="#fff"/>
	<path d="M117.3 48.2H26.8a4.8 4.8 0 0 1 0-9.6h90.5a4.8 4.8 0 1 1 0 9.6Z" fill="#fff"/>
	<path d="M117.3 54.8a4.8 4.8 0 0 1-4.7-4.7V36.8a4.8 4.8 0 0 1 9.5 0V50a4.8 4.8 0 0 1-4.8 4.7Zm0 26.6a4.8 4.8 0 0 1-4.7-4.8V63.5a4.8 4.8 0 0 1 9.5 0v13.3a4.8 4.8 0 0 1-4.8 4.7Zm0 26.6a4.8 4.8 0 0 1-4.7-4.8V90a4.8 4.8 0 1 1 9.5 0v13.3a4.8 4.8 0 0 1-4.8 4.8ZM26.8 54.8a4.8 4.8 0 0 1-4.7-4.7V36.8a4.8 4.8 0 0 1 9.5 0V50a4.8 4.8 0 0 1-4.8 4.7Z" fill="#fff"/>
</svg>
