<svg id="Layer_2" data-name="Layer 2" xmlns="http://www.w3.org/2000/svg" viewBox="0 0 140 140"><path d="M76.22,110.92a4.77,4.77,0,0,1-3.72-1.78c-7.25-9-16.89-23-16.89-40.51S65.25,37.14,72.5,28.12a4.77,4.77,0,1,1,7.44,6C73.59,42,65.16,54.16,65.16,68.63s8.43,26.63,14.78,34.53a4.77,4.77,0,0,1-3.72,7.76Z" fill="#fff"/><path d="M95.45,110.92a4.77,4.77,0,0,1-3.72-1.78c-7.25-9-16.89-23-16.89-40.51s9.64-31.49,16.89-40.51a4.77,4.77,0,1,1,7.44,6C92.82,42,84.39,54.16,84.39,68.63s8.43,26.63,14.78,34.53a4.77,4.77,0,0,1-3.72,7.76Z" fill="#fff"/><path d="M114.68,110.92a4.77,4.77,0,0,1-3.72-1.78c-7.25-9-16.89-23-16.89-40.51S103.71,37.14,111,28.12a4.77,4.77,0,1,1,7.44,6c-6.35,7.9-14.78,20.08-14.78,34.54s8.43,26.63,14.78,34.53a4.77,4.77,0,0,1-3.72,7.76Z" fill="#fff"/><path d="M63.78,110.92a4.77,4.77,0,0,1-3.72-7.76c6.35-7.9,14.78-20.07,14.78-34.53S66.41,42,60.06,34.09a4.77,4.77,0,1,1,7.44-6c7.25,9,16.89,23,16.89,40.51s-9.64,31.49-16.89,40.51A4.77,4.77,0,0,1,63.78,110.92Z" fill="#fff"/><path d="M44.55,110.92a4.77,4.77,0,0,1-3.72-7.76c6.35-7.9,14.78-20.07,14.78-34.53S47.18,42,40.83,34.09a4.77,4.77,0,1,1,7.44-6c7.25,9,16.89,23,16.89,40.51s-9.64,31.49-16.89,40.51A4.77,4.77,0,0,1,44.55,110.92Z" fill="#fff"/><path d="M25.32,110.92a4.77,4.77,0,0,1-3.72-7.76C28,95.26,36.38,83.09,36.38,68.63S28,42,21.6,34.09a4.77,4.77,0,1,1,7.44-6c7.25,9,16.89,23,16.89,40.51S36.29,100.12,29,109.14A4.77,4.77,0,0,1,25.32,110.92Z" fill="#fff"/></svg>