<svg xmlns="http://www.w3.org/2000/svg" viewBox="0 0 140 140">
	<path d="M76.2 111a4.8 4.8 0 0 1-3.7-1.9c-7.3-9-16.9-23-16.9-40.5s9.6-31.5 16.9-40.5a4.8 4.8 0 1 1 7.4 6c-6.3 7.9-14.7 20-14.7 34.5s8.4 26.7 14.7 34.6a4.8 4.8 0 0 1-3.7 7.7Z" fill="#fff"/>
	<path d="M95.5 111a4.8 4.8 0 0 1-3.8-1.9c-7.2-9-16.9-23-16.9-40.5s9.7-31.5 17-40.5a4.8 4.8 0 1 1 7.4 6c-6.4 7.9-14.8 20-14.8 34.5s8.4 26.7 14.8 34.6a4.8 4.8 0 0 1-3.8 7.7Z" fill="#fff"/>
	<path d="M114.7 111a4.8 4.8 0 0 1-3.7-1.9c-7.3-9-17-23-17-40.5s9.7-31.5 17-40.5a4.8 4.8 0 1 1 7.4 6c-6.3 8-14.7 20.1-14.7 34.6s8.4 26.6 14.7 34.5a4.8 4.8 0 0 1-3.7 7.7Zm-51 0a4.8 4.8 0 0 1-3.6-7.8c6.3-8 14.7-20.1 14.7-34.6S66.4 42 60.1 34.1a4.8 4.8 0 1 1 7.4-6c7.3 9 16.9 23 16.9 40.5s-9.7 31.5-16.9 40.5a4.8 4.8 0 0 1-3.7 1.8Z" fill="#fff"/>
	<path d="M44.5 111a4.8 4.8 0 0 1-3.7-7.8c6.4-8 14.8-20.1 14.8-34.6S47.2 42 40.8 34.1a4.8 4.8 0 1 1 7.5-6c7.2 9 16.9 23 16.9 40.5s-9.7 31.5-17 40.5a4.8 4.8 0 0 1-3.7 1.8Z" fill="#fff"/>
	<path d="M25.3 111a4.8 4.8 0 0 1-3.7-7.8c6.4-8 14.8-20.1 14.8-34.6S28 42 21.6 34.1a4.8 4.8 0 1 1 7.4-6c7.3 9 17 23 17 40.5s-9.7 31.5-17 40.5a4.8 4.8 0 0 1-3.7 1.8Z" fill="#fff"/>
</svg>
