<svg id="Layer_2" data-name="Layer 2" xmlns="http://www.w3.org/2000/svg" viewBox="0 0 140 140"><path d="M70,123.29a57.94,57.94,0,1,1,57.94-57.94A58,58,0,0,1,70,123.29ZM70,17a48.39,48.39,0,1,0,48.39,48.39A48.45,48.45,0,0,0,70,17Z" fill="#231f20"/><path d="M70,70.12a4.76,4.76,0,0,1-3.63-7.86l34.45-40.47A4.77,4.77,0,0,1,108.09,28L73.63,68.45A4.76,4.76,0,0,1,70,70.12Z" fill="#231f20"/><path d="M133.85,123.29H115.26a4.78,4.78,0,0,1,0-9.55h18.59a4.78,4.78,0,0,1,0,9.55Z" fill="#231f20"/><path d="M24.74,123.29H6.15a4.78,4.78,0,0,1,0-9.55H24.74a4.78,4.78,0,0,1,0,9.55Z" fill="#231f20"/><path d="M124.55,132.58a4.77,4.77,0,0,1-4.77-4.77V109.22a4.78,4.78,0,0,1,9.55,0v18.59A4.77,4.77,0,0,1,124.55,132.58Z" fill="#231f20"/></svg>