<svg xmlns="http://www.w3.org/2000/svg" viewBox="0 0 140 140">
	<path d="M133.8 108.2a5.2 5.2 0 0 1-4.8-3.2c-3-7.6-5.3-18.7-7.5-29.5-1.7-8.3-3.4-16.8-5.4-23.3-2.5-8-4.4-9.7-4.8-10-.7.1-2.3 1.4-4.2 5.7-2.2 4.9-4 11.8-5.8 18.5-4.4 16.3-8.6 31.7-20 31.7-11 0-15.7-11.6-19.9-21.9-2.9-7.2-6.2-15.4-10.2-15.4s-6.7 4.3-10.4 11.3c-4 7.4-9 16.7-19.6 16.7-10 0-15-6.3-19-11.3a5.2 5.2 0 0 1 8-6.5c3.8 4.7 6.2 7.4 11 7.4 4.1 0 6.7-4.3 10.4-11.3 4-7.4 9-16.7 19.6-16.7 11 0 15.7 11.7 19.9 22 2.9 7.1 6.2 15.3 10.2 15.3.6 0 2.2-1.2 4.2-5.6 2.1-4.9 4-11.8 5.8-18.5 4.4-16.3 8.6-31.8 20.1-31.8 11.9 0 15.6 18.3 20.3 41.6 2 10.3 4.3 21 7 27.7a5.2 5.2 0 0 1-4.8 7.1Z" fill="#fff"/>
</svg>
