<svg xmlns="http://www.w3.org/2000/svg" viewBox="0 0 140 140">
	<path d="M25.4 101.3a4.8 4.8 0 0 1 0-9.5 73 73 0 0 0 42.8-12.6 82.1 82.1 0 0 1 47.7-14 4.8 4.8 0 1 1 0 9.5 73.2 73.2 0 0 0-42.8 12.7 82 82 0 0 1-47.7 14Z" fill="#fff"/>
	<path d="M116 74.8c-24 0-36-7.1-47.8-14a73 73 0 0 0-42.8-12.6 4.8 4.8 0 0 1 0-9.6c24 0 36 7.1 47.7 14a73.2 73.2 0 0 0 42.8 12.6 4.8 4.8 0 1 1 0 9.6Z" fill="#fff"/>
	<path d="M116 81.4a4.8 4.8 0 0 1-4.8-4.8V63.5a4.8 4.8 0 0 1 9.5 0v13.3a4.8 4.8 0 0 1-4.8 4.7ZM25.3 54.8a4.8 4.8 0 0 1-4.8-4.7V36.8a4.8 4.8 0 0 1 9.6 0V50a4.8 4.8 0 0 1-4.8 4.7Zm0 53.2a4.8 4.8 0 0 1-4.8-4.8V90a4.8 4.8 0 1 1 9.6 0v13.3a4.8 4.8 0 0 1-4.8 4.8Z" fill="#fff"/>
</svg>
