<svg id="Layer_2" data-name="Layer 2" xmlns="http://www.w3.org/2000/svg" viewBox="0 0 140 140"><path d="M25.4,101.35a4.77,4.77,0,0,1,0-9.54c21.33,0,31.78-6.14,42.84-12.63,11.68-6.86,23.75-14,47.68-14a4.77,4.77,0,1,1,0,9.54c-21.33,0-31.78,6.14-42.84,12.64C61.4,94.26,49.33,101.35,25.4,101.35Z" fill="#fff"/><path d="M115.92,74.77c-23.93,0-36-7.09-47.68-13.95C57.18,54.33,46.73,48.19,25.4,48.19a4.77,4.77,0,0,1,0-9.54c23.93,0,36,7.09,47.68,13.94,11.06,6.5,21.51,12.64,42.84,12.64a4.77,4.77,0,1,1,0,9.54Z" fill="#fff"/><path d="M115.92,81.42a4.77,4.77,0,0,1-4.77-4.77V63.35a4.77,4.77,0,0,1,9.54,0v13.3A4.78,4.78,0,0,1,115.92,81.42Z" fill="#fff"/><path d="M25.4,54.84a4.78,4.78,0,0,1-4.77-4.78V36.77a4.77,4.77,0,0,1,9.54,0V50.06A4.77,4.77,0,0,1,25.4,54.84Z" fill="#fff"/><path d="M25.4,108a4.78,4.78,0,0,1-4.77-4.77V89.94a4.77,4.77,0,1,1,9.54,0v13.29A4.77,4.77,0,0,1,25.4,108Z" fill="#fff"/></svg>