<svg xmlns="http://www.w3.org/2000/svg" viewBox="0 0 140 140">
	<path d="M113.3 81.3A4.8 4.8 0 0 1 110 80L96.8 66.8a4.8 4.8 0 0 1 6.8-6.8l13.1 13.2a4.8 4.8 0 0 1-3.4 8.2Z" fill="#fff"/>
	<path d="M100.2 81.3a4.8 4.8 0 0 1-3.4-8.1L110 60a4.8 4.8 0 0 1 6.8 6.8L103.5 80a4.8 4.8 0 0 1-3.4 1.3Zm-71.6 20a4.8 4.8 0 1 1 0-9.5c21.3 0 31.7-6.1 42.8-12.6 3.7-2.2 7.5-4.4 11.7-6.4a4.8 4.8 0 1 1 4.1 8.6c-3.8 1.8-7.3 3.9-11 6a82 82 0 0 1-47.6 14Zm56.6-33.6a4.8 4.8 0 0 1-2-.5c-4.3-2-8-4.2-11.8-6.4a73 73 0 0 0-42.8-12.6 4.8 4.8 0 1 1 0-9.6c23.9 0 36 7.1 47.6 14 3.7 2.1 7.2 4.2 11 6a4.8 4.8 0 0 1-2 9Z" fill="#fff"/>
	<path d="M28.6 54.8a4.8 4.8 0 0 1-4.8-4.7V36.8a4.8 4.8 0 0 1 9.5 0V50a4.8 4.8 0 0 1-4.7 4.7Zm0 53.2a4.8 4.8 0 0 1-4.8-4.8V90a4.8 4.8 0 1 1 9.5 0v13.3a4.8 4.8 0 0 1-4.7 4.8Z" fill="#fff"/>
</svg>
