<svg id="Layer_2" data-name="Layer 2" xmlns="http://www.w3.org/2000/svg" viewBox="0 0 140 140"><path d="M113.34,81.35A4.76,4.76,0,0,1,110,80L96.82,66.8a4.77,4.77,0,0,1,6.75-6.75L116.72,73.2a4.78,4.78,0,0,1-3.38,8.15Z" fill="#fff"/><path d="M100.2,81.35a4.78,4.78,0,0,1-3.38-8.15L110,60.05a4.77,4.77,0,0,1,6.75,6.75L103.57,80A4.76,4.76,0,0,1,100.2,81.35Z" fill="#fff"/><path d="M28.56,101.35a4.77,4.77,0,1,1,0-9.54c21.33,0,31.78-6.14,42.84-12.63,3.68-2.17,7.49-4.41,11.72-6.42a4.77,4.77,0,1,1,4.1,8.62c-3.85,1.83-7.32,3.87-11,6C64.56,94.26,52.48,101.35,28.56,101.35Z" fill="#fff"/><path d="M85.17,67.7a4.82,4.82,0,0,1-2-.46c-4.23-2-8-4.25-11.72-6.42C60.34,54.33,49.89,48.19,28.56,48.19a4.77,4.77,0,1,1,0-9.54c23.92,0,36,7.09,47.67,13.94,3.67,2.16,7.14,4.2,11,6a4.77,4.77,0,0,1-2,9.08Z" fill="#fff"/><path d="M28.56,54.84a4.78,4.78,0,0,1-4.78-4.78V36.77a4.78,4.78,0,0,1,9.55,0V50.06A4.78,4.78,0,0,1,28.56,54.84Z" fill="#fff"/><path d="M28.56,108a4.78,4.78,0,0,1-4.78-4.77V89.94a4.78,4.78,0,1,1,9.55,0v13.29A4.78,4.78,0,0,1,28.56,108Z" fill="#fff"/></svg>