<svg id="Layer_2" data-name="Layer 2" xmlns="http://www.w3.org/2000/svg" viewBox="0 0 140 140"><path d="M120.35,106.93H19.65a1.5,1.5,0,0,1,0-3h100.7a1.5,1.5,0,0,1,0,3Z" fill="#fff"/><path d="M120.35,89.45H19.65a1.5,1.5,0,1,1,0-3h100.7a1.5,1.5,0,0,1,0,3Z" fill="#fff"/><path d="M120.35,72H19.65a1.5,1.5,0,1,1,0-3h100.7a1.5,1.5,0,0,1,0,3Z" fill="#fff"/><path d="M120.35,54.5H19.65a1.5,1.5,0,0,1,0-3h100.7a1.5,1.5,0,0,1,0,3Z" fill="#fff"/><path d="M120.35,37H19.65a1.5,1.5,0,0,1,0-3h100.7a1.5,1.5,0,0,1,0,3Z" fill="#fff"/><circle cx="70" cy="79.22" r="8.74" fill="#fff"/><rect x="75.7" y="21.27" width="3" height="57.95" fill="#fff"/></svg>