<svg xmlns="http://www.w3.org/2000/svg" viewBox="0 0 140 140">
	<path d="M18.5 82.2a1.5 1.5 0 0 1-1.5-1.5V64.9a1.5 1.5 0 1 1 3 0v15.8a1.5 1.5 0 0 1-1.5 1.5Zm103 0a1.5 1.5 0 0 1-1.4-1.5V64.9a1.5 1.5 0 1 1 3 0v15.8a1.5 1.5 0 0 1-1.5 1.5Zm-11.4 0a1.5 1.5 0 0 1-1.5-1.5V64.9a1.5 1.5 0 1 1 3 0v15.8a1.5 1.5 0 0 1-1.5 1.5Zm-11.4 0a1.5 1.5 0 0 1-1.5-1.5V64.9a1.5 1.5 0 1 1 3 0v15.8a1.5 1.5 0 0 1-1.5 1.5Zm-11.5 0a1.5 1.5 0 0 1-1.5-1.5V64.9a1.5 1.5 0 1 1 3 0v15.8a1.5 1.5 0 0 1-1.5 1.5Zm-34.3 0a1.5 1.5 0 0 1-1.5-1.5V64.9a1.5 1.5 0 1 1 3 0v15.8a1.5 1.5 0 0 1-1.5 1.5Zm-11.5 0a1.5 1.5 0 0 1-1.5-1.5V64.9a1.5 1.5 0 1 1 3 0v15.8a1.5 1.5 0 0 1-1.5 1.5Zm-11.4 0a1.5 1.5 0 0 1-1.5-1.5V64.9a1.5 1.5 0 1 1 3 0v15.8a1.5 1.5 0 0 1-1.5 1.5Z" fill="#fff"/>
	<path d="M128.5 77.5h-117a4.8 4.8 0 0 1 0-9.5h117a4.8 4.8 0 1 1 0 9.5Z" fill="#fff"/>
	<path d="M70 87.6a4.8 4.8 0 0 1-4.7-4.8v-20a4.8 4.8 0 0 1 9.5 0v20a4.8 4.8 0 0 1-4.8 4.8Z" fill="#fff"/>
</svg>
