<svg id="Layer_2" data-name="Layer 2" xmlns="http://www.w3.org/2000/svg" viewBox="0 0 140 140"><path d="M18.53,82.18a1.5,1.5,0,0,1-1.5-1.5V64.87a1.5,1.5,0,1,1,3,0V80.68A1.5,1.5,0,0,1,18.53,82.18Z" fill="#fff"/><path d="M121.57,82.18a1.51,1.51,0,0,1-1.5-1.5V64.87a1.5,1.5,0,1,1,3,0V80.68A1.5,1.5,0,0,1,121.57,82.18Z" fill="#fff"/><path d="M110.12,82.18a1.51,1.51,0,0,1-1.5-1.5V64.87a1.5,1.5,0,1,1,3,0V80.68A1.5,1.5,0,0,1,110.12,82.18Z" fill="#fff"/><path d="M98.67,82.18a1.51,1.51,0,0,1-1.5-1.5V64.87a1.5,1.5,0,1,1,3,0V80.68A1.5,1.5,0,0,1,98.67,82.18Z" fill="#fff"/><path d="M87.22,82.18a1.51,1.51,0,0,1-1.5-1.5V64.87a1.5,1.5,0,1,1,3,0V80.68A1.5,1.5,0,0,1,87.22,82.18Z" fill="#fff"/><path d="M52.88,82.18a1.5,1.5,0,0,1-1.5-1.5V64.87a1.5,1.5,0,1,1,3,0V80.68A1.5,1.5,0,0,1,52.88,82.18Z" fill="#fff"/><path d="M41.43,82.18a1.5,1.5,0,0,1-1.5-1.5V64.87a1.5,1.5,0,1,1,3,0V80.68A1.5,1.5,0,0,1,41.43,82.18Z" fill="#fff"/><path d="M30,82.18a1.5,1.5,0,0,1-1.5-1.5V64.87a1.5,1.5,0,1,1,3,0V80.68A1.5,1.5,0,0,1,30,82.18Z" fill="#fff"/><path d="M128.53,77.54h-117a4.77,4.77,0,0,1,0-9.54h117a4.77,4.77,0,1,1,0,9.54Z" fill="#fff"/><path d="M70.05,87.58a4.77,4.77,0,0,1-4.77-4.77V62.73a4.77,4.77,0,0,1,9.54,0V82.81A4.76,4.76,0,0,1,70.05,87.58Z" fill="#fff"/></svg>