<svg xmlns="http://www.w3.org/2000/svg" viewBox="0 0 140 140">
	<path d="M70.3 116h-.7c-6.2 0-9.4-5-12.3-9.3-2.7-4.2-5.3-8.2-10.2-8.2s-7.2 3.8-10 8S31 116 24.5 116a1.5 1.5 0 0 1 0-3c4.9 0 7.3-3.7 10-8s6.1-9.4 12.6-9.4 9.8 5 12.7 9.5c2.7 4 5 7.6 9.1 8l.1-.2h.7c4.8 0 7.2-3.7 10-8s6-9.5 12.5-9.5 9.9 5.1 12.8 9.6c2.7 4.2 5.1 8 9.7 8a1.5 1.5 0 0 1 0 3c-6.2 0-9.4-5-12.2-9.4s-5.4-8.2-10.3-8.2-7.2 3.8-10 8-5.8 9.1-11.8 9.4Z" fill="#fff"/>
	<path d="M70.3 98.5h-.7c-6.2 0-9.4-5-12.3-9.3S52 81 47.1 81s-7.2 3.7-10 8-6.1 9.5-12.6 9.5a1.5 1.5 0 0 1 0-3c4.9 0 7.3-3.8 10-8S40.7 78 47.1 78 57 83 60 87.5c2.6 4.1 4.9 7.6 9.1 8l.1-.2h.6c4.9 0 7.3-3.7 10-8s6-9.3 12.5-9.3 9.8 5 12.7 9.6c2.8 4.2 5.2 7.9 9.8 7.9a1.5 1.5 0 0 1 0 3c-6.2 0-9.4-5-12.3-9.3S97.2 81 92.3 81s-7.2 3.8-10 8-5.9 9.1-12 9.4Z" fill="#fff"/>
	<path d="M70.3 81h-.7c-6.2 0-9.4-5-12.3-9.4-2.7-4.2-5.3-8.1-10.2-8.1s-7.2 3.7-10 8S31 81 24.5 81a1.5 1.5 0 0 1 0-3c4.9 0 7.3-3.7 10-8s6.1-9.4 12.6-9.4 9.8 5 12.8 9.5c2.6 4 4.9 7.6 9 8l.2-.2h.6c4.9 0 7.3-3.7 10-8s6.1-9.4 12.6-9.4 9.8 5 12.7 9.5c2.8 4.3 5.2 8 9.8 8a1.5 1.5 0 0 1 0 3c-6.2 0-9.5-5-12.3-9.4-2.7-4.2-5.3-8.1-10.2-8.1s-7.3 3.7-10 8-5.9 9.1-12 9.4Z" fill="#fff"/>
	<path d="M70.3 63.4h-.7c-6.2 0-9.4-5-12.3-9.3s-5.3-8.2-10.2-8.2-7.2 3.7-10 8-6.1 9.5-12.6 9.5a1.5 1.5 0 0 1 0-3c4.9 0 7.3-3.7 10-8S40.6 43 47.1 43s9.8 5 12.8 9.5c2.6 4 4.9 7.6 9 7.9l.2-.1h.6c4.9 0 7.3-3.8 10-8.1s6.1-9.4 12.6-9.4 9.8 5 12.7 9.5c2.8 4.3 5.2 8 9.8 8a1.5 1.5 0 0 1 0 3c-6.2 0-9.5-5-12.3-9.3s-5.3-8.2-10.2-8.2-7.3 3.7-10 8-5.9 9-12 9.4Z" fill="#fff"/>
	<path d="M70.3 45.9h-.7c-6.2 0-9.4-5-12.3-9.3-2.7-4.3-5.3-8.2-10.2-8.2s-7.2 3.7-10 8S31 46 24.5 46a1.5 1.5 0 1 1 0-3c4.9 0 7.3-3.8 10-8.1s6.1-9.4 12.6-9.4 9.8 5 12.7 9.5c2.7 4.1 5 7.6 9.2 8l.1-.2h.6c4.9 0 7.3-3.7 10-8s6.1-9.5 12.6-9.5 9.8 5.1 12.7 9.6c2.8 4.2 5.2 8 9.8 8a1.5 1.5 0 0 1 0 3c-6.2 0-9.4-5-12.3-9.4s-5.3-8.2-10.2-8.2-7.2 3.8-10 8-5.9 9.2-11.9 9.5Z" fill="#fff"/>
</svg>
