<svg xmlns="http://www.w3.org/2000/svg" viewBox="0 0 140 140">
	<path d="M70 112.9c-6 0-9-4.6-11.9-9s-5.5-8.5-10.6-8.5-7.7 4-10.5 8.3c-3 4.5-6 9.2-12.1 9.2v-2c5 0 7.7-4 10.4-8.3 3-4.5 6-9.2 12.2-9.2s9.3 4.7 12.3 9.3c2.7 4.2 5.3 8.2 10.1 8.2Zm45.1-.1c-5.9 0-8.9-4.6-11.8-9.1s-5.5-8.4-10.6-8.4-7.8 4-10.5 8.3c-3 4.5-6 9.2-12.1 9.2v-2c5 0 7.7-4 10.4-8.3 3-4.5 6-9.2 12.2-9.2s9.3 4.7 12.3 9.3c2.7 4.2 5.3 8.2 10.2 8.2Z" fill="#fff"/>
	<path d="M70 95.3c-6 0-9-4.6-11.9-9s-5.5-8.4-10.6-8.4-7.7 4-10.5 8.2c-3 4.6-6 9.3-12.1 9.3v-2c5 0 7.7-4 10.4-8.3 3-4.6 6-9.2 12.2-9.2s9.3 4.7 12.3 9.3c2.7 4.2 5.3 8.2 10.1 8.2Zm45.1 0c-5.9 0-8.9-4.7-11.8-9.2s-5.5-8.4-10.6-8.4-7.7 4-10.5 8.3c-3 4.5-6 9.2-12.1 9.2v-2c5 0 7.7-4 10.4-8.3 3-4.5 6-9.2 12.2-9.2S102 80.5 105 85c2.7 4.2 5.3 8.2 10.2 8.2Z" fill="#fff"/>
	<path d="M70 77.8c-6 0-9-4.6-11.9-9s-5.5-8.5-10.6-8.5-7.7 4-10.5 8.3c-3 4.5-6 9.2-12.1 9.2v-2c5 0 7.7-4 10.4-8.3 3-4.5 6-9.2 12.2-9.2s9.3 4.8 12.3 9.3c2.7 4.2 5.3 8.2 10.1 8.2Zm45.1-.1c-5.9 0-8.9-4.6-11.8-9.1s-5.5-8.4-10.6-8.4-7.8 4-10.5 8.3c-3 4.5-6 9.2-12.1 9.2v-2c5 0 7.7-4 10.4-8.3 3-4.5 6-9.2 12.2-9.2s9.3 4.7 12.3 9.3c2.7 4.2 5.3 8.2 10.2 8.2Z" fill="#fff"/>
	<path d="M70 60.3c-6 0-9-4.6-11.9-9.1s-5.5-8.4-10.6-8.4-7.7 4-10.5 8.3c-3 4.5-6 9.2-12.1 9.2v-2c5 0 7.7-4 10.4-8.3 3-4.5 6-9.2 12.2-9.2s9.3 4.7 12.3 9.3c2.7 4.2 5.3 8.2 10.1 8.2Zm45-.3c-5.9 0-8.9-4.6-11.8-9s-5.5-8.4-10.6-8.4-7.8 4-10.5 8.2c-3 4.6-6 9.2-12.1 9.2v-2c5 0 7.7-4 10.4-8.2 3-4.6 6-9.2 12.2-9.2S102 45.4 105 50c2.7 4.2 5.3 8.2 10.2 8.2Z" fill="#fff"/>
	<path d="M70 42.7c-6 0-9-4.6-11.9-9s-5.5-8.5-10.6-8.5-7.7 4-10.5 8.3c-3 4.5-6 9.2-12.1 9.2v-2c5 0 7.7-4 10.4-8.3 3-4.5 6-9.2 12.2-9.2s9.3 4.8 12.3 9.4c2.7 4.2 5.3 8.1 10.1 8.1Zm45.1-.1c-5.9 0-8.9-4.6-11.8-9S97.8 25 92.7 25s-7.8 4-10.5 8.3c-3 4.5-6 9.2-12.1 9.2v-2c5 0 7.7-4 10.4-8.3 3-4.5 6-9.2 12.2-9.2s9.3 5 12.3 9.4c2.7 4.2 5.3 8.2 10.2 8.2Z" fill="#fff"/>
</svg>
