<svg id="Layer_2" data-name="Layer 2" xmlns="http://www.w3.org/2000/svg" viewBox="0 0 140 140"><path d="M70.25,116H69.6c-6.2,0-9.42-4.94-12.26-9.3-2.74-4.21-5.32-8.18-10.21-8.18s-7.25,3.73-10,8S31,116,24.53,116a1.5,1.5,0,0,1,0-3c4.83,0,7.24-3.73,10-8s6.09-9.43,12.56-9.43,9.81,5.07,12.73,9.54c2.64,4.06,4.94,7.59,9.12,7.91l.1-.1h.64c4.84,0,7.25-3.74,10-8.06s6.1-9.42,12.56-9.42,9.82,5.07,12.73,9.54c2.77,4.26,5.17,7.94,9.75,7.94a1.5,1.5,0,0,1,0,3c-6.21,0-9.43-4.94-12.26-9.3s-5.33-8.18-10.22-8.18-7.24,3.73-10,8-5.86,9.08-11.89,9.41Z" fill="#fff"/><path d="M70.25,98.47H69.6c-6.2,0-9.42-4.93-12.26-9.29S52,81,47.13,81s-7.25,3.73-10,8S31,98.47,24.53,98.47a1.5,1.5,0,0,1,0-3c4.83,0,7.24-3.73,10-8S40.66,78,47.13,78s9.81,5.07,12.73,9.54C62.5,91.6,64.8,95.13,69,95.45l.1-.11h.64c4.84,0,7.25-3.73,10-8s6.1-9.42,12.56-9.42,9.82,5.07,12.73,9.54c2.77,4.26,5.17,7.93,9.75,7.93a1.5,1.5,0,0,1,0,3c-6.21,0-9.43-4.94-12.26-9.29s-5.33-8.18-10.22-8.18-7.24,3.73-10,8S76.42,98,70.39,98.33Z" fill="#fff"/><path d="M70.25,80.93H69.6c-6.2,0-9.42-4.94-12.26-9.3-2.74-4.2-5.32-8.18-10.21-8.18s-7.25,3.74-10,8.06S31,80.93,24.53,80.93a1.5,1.5,0,0,1,0-3c4.83,0,7.24-3.73,10-8.05s6.09-9.43,12.56-9.43S56.94,65.52,59.86,70c2.64,4.06,4.94,7.59,9.12,7.91l.1-.11h.64c4.84,0,7.25-3.73,10-8s6.1-9.43,12.56-9.43,9.82,5.07,12.73,9.55c2.77,4.25,5.17,7.93,9.75,7.93a1.5,1.5,0,0,1,0,3c-6.21,0-9.43-4.94-12.26-9.3-2.74-4.2-5.33-8.18-10.22-8.18s-7.24,3.73-10,8.06-5.86,9.07-11.89,9.4Z" fill="#fff"/><path d="M70.25,63.39H69.6c-6.2,0-9.42-4.94-12.26-9.3S52,45.91,47.13,45.91s-7.25,3.73-10,8.05S31,63.39,24.53,63.39a1.5,1.5,0,0,1,0-3c4.83,0,7.24-3.73,10-8s6.09-9.43,12.56-9.43S56.94,48,59.86,52.45c2.64,4.06,4.94,7.6,9.12,7.92l.1-.11h.64c4.84,0,7.25-3.73,10-8.06s6.1-9.42,12.56-9.42,9.82,5.07,12.73,9.54c2.77,4.26,5.17,7.94,9.75,7.94a1.5,1.5,0,0,1,0,3c-6.21,0-9.43-4.94-12.26-9.3s-5.33-8.18-10.22-8.18-7.24,3.73-10,8-5.86,9.08-11.89,9.41Z" fill="#fff"/><path d="M70.25,45.85H69.6c-6.2,0-9.42-4.94-12.26-9.3C54.6,32.34,52,28.37,47.13,28.37s-7.25,3.73-10,8.05S31,45.85,24.53,45.85a1.5,1.5,0,1,1,0-3c4.83,0,7.24-3.74,10-8.06s6.09-9.42,12.56-9.42,9.81,5.07,12.73,9.54C62.5,39,64.8,42.5,69,42.82l.1-.1h.64c4.84,0,7.25-3.74,10-8.06s6.1-9.42,12.56-9.42,9.82,5.07,12.73,9.54c2.77,4.26,5.17,7.94,9.75,7.94a1.5,1.5,0,0,1,0,3c-6.21,0-9.43-4.94-12.26-9.3s-5.33-8.18-10.22-8.18-7.24,3.73-10,8.05-5.86,9.08-11.89,9.41Z" fill="#fff"/></svg>