<svg id="Layer_2" data-name="Layer 2" xmlns="http://www.w3.org/2000/svg" viewBox="0 0 140 140"><path d="M69.94,112.89c-5.94,0-8.94-4.61-11.84-9.07s-5.48-8.41-10.64-8.41-7.7,4-10.45,8.28c-2.93,4.52-5.95,9.2-12.14,9.2v-2c5.1,0,7.7-4,10.46-8.28,2.92-4.52,5.94-9.2,12.13-9.2s9.33,4.74,12.31,9.32c2.74,4.19,5.32,8.16,10.17,8.16Z" fill="#fff"/><path d="M115.13,112.76c-5.93,0-8.93-4.61-11.84-9.07s-5.47-8.41-10.63-8.41-7.71,4-10.46,8.28c-2.92,4.52-5.94,9.2-12.14,9.2v-2c5.11,0,7.71-4,10.46-8.28,2.92-4.52,6-9.2,12.14-9.2S102,98,105,102.6c2.73,4.19,5.31,8.16,10.16,8.16Z" fill="#fff"/><path d="M69.94,95.35C64,95.35,61,90.74,58.1,86.28s-5.48-8.41-10.64-8.41-7.7,4-10.45,8.28c-2.93,4.52-5.95,9.2-12.14,9.2v-2c5.1,0,7.7-4,10.46-8.28,2.92-4.53,5.94-9.2,12.13-9.2s9.33,4.73,12.31,9.31c2.74,4.2,5.32,8.17,10.17,8.17Z" fill="#fff"/><path d="M115.13,95.22c-5.93,0-8.93-4.62-11.84-9.08s-5.47-8.4-10.63-8.4S85,81.76,82.2,86c-2.92,4.52-5.94,9.2-12.14,9.2v-2c5.11,0,7.71-4,10.46-8.29,2.92-4.52,6-9.19,12.14-9.19S102,80.47,105,85.05c2.73,4.2,5.31,8.17,10.16,8.17Z" fill="#fff"/><path d="M69.94,77.8C64,77.8,61,73.19,58.1,68.73s-5.48-8.4-10.64-8.4-7.7,4-10.45,8.28c-2.93,4.52-5.95,9.19-12.14,9.19v-2c5.1,0,7.7-4,10.46-8.28,2.92-4.52,5.94-9.19,12.13-9.19s9.33,4.73,12.31,9.31c2.74,4.2,5.32,8.16,10.17,8.16Z" fill="#fff"/><path d="M115.13,77.67c-5.93,0-8.93-4.61-11.84-9.07s-5.47-8.4-10.63-8.4-7.71,4-10.46,8.28c-2.92,4.52-5.94,9.19-12.14,9.19v-2c5.11,0,7.71-4,10.46-8.28,2.92-4.52,6-9.19,12.14-9.19S102,62.93,105,67.51c2.73,4.2,5.31,8.16,10.16,8.16Z" fill="#fff"/><path d="M69.94,60.26C64,60.26,61,55.65,58.1,51.19s-5.48-8.41-10.64-8.41-7.7,4-10.45,8.29c-2.93,4.52-5.95,9.19-12.14,9.19v-2c5.1,0,7.7-4,10.46-8.28,2.92-4.52,5.94-9.2,12.13-9.2s9.33,4.74,12.31,9.32c2.74,4.2,5.32,8.16,10.17,8.16Z" fill="#fff"/><path d="M115.13,60.13c-5.93,0-8.93-4.61-11.84-9.07s-5.47-8.41-10.63-8.41-7.71,4-10.46,8.28c-2.92,4.53-5.94,9.2-12.14,9.2v-2c5.11,0,7.71-4,10.46-8.28,2.92-4.52,6-9.2,12.14-9.2S102,45.39,105,50c2.73,4.2,5.31,8.16,10.16,8.16Z" fill="#fff"/><path d="M69.94,42.72C64,42.72,61,38.11,58.1,33.65s-5.48-8.41-10.64-8.41-7.7,4-10.45,8.28c-2.93,4.52-5.95,9.2-12.14,9.2v-2c5.1,0,7.7-4,10.46-8.28,2.92-4.52,5.94-9.2,12.13-9.2S56.79,28,59.77,32.56c2.74,4.19,5.32,8.16,10.17,8.16Z" fill="#fff"/><path d="M115.13,42.59c-5.93,0-8.93-4.61-11.84-9.07s-5.47-8.41-10.63-8.41-7.71,4-10.46,8.28c-2.92,4.52-5.94,9.2-12.14,9.2v-2c5.11,0,7.71-4,10.46-8.28,2.92-4.53,6-9.2,12.14-9.2S102,27.85,105,32.42c2.73,4.2,5.31,8.17,10.16,8.17Z" fill="#fff"/></svg>