<svg xmlns="http://www.w3.org/2000/svg" viewBox="0 0 140 140">
	<path d="M71 98.6a4.8 4.8 0 0 1-4.8-4.8V83.3a28 28 0 0 1 16.2-25.2h.1A18.5 18.5 0 0 0 93.4 42c0-10.4-10-18.8-22.3-18.8S48.7 31.6 48.7 42a4.8 4.8 0 1 1-9.6 0c0-15.7 14.3-28.4 31.9-28.4s31.8 12.7 31.8 28.4a28 28 0 0 1-16.1 24.7h-.2A18.4 18.4 0 0 0 75.8 83v10.8a4.8 4.8 0 0 1-4.8 4.8Zm0 23.8a4.9 4.9 0 0 1-1-.1 4.7 4.7 0 0 1-.8-.3 5.4 5.4 0 0 1-.9-.4 4.5 4.5 0 0 1-.7-.6 5.3 5.3 0 0 1-.6-.7 5 5 0 0 1-.4-.8 4.8 4.8 0 0 1-.3-1 5 5 0 0 1 0-.9 4.8 4.8 0 0 1 5.6-4.7 5.5 5.5 0 0 1 1 .3 4.6 4.6 0 0 1 .8.5 4.5 4.5 0 0 1 .7.6 4.8 4.8 0 0 1 .6.7 4.6 4.6 0 0 1 .4.8 4.8 4.8 0 0 1 .3.9 4.9 4.9 0 0 1 0 1 5 5 0 0 1 0 .9 4.8 4.8 0 0 1-.3.9 5 5 0 0 1-.4.8 5.3 5.3 0 0 1-.6.7 4.5 4.5 0 0 1-.8.6 5.4 5.4 0 0 1-.8.4 4.7 4.7 0 0 1-.9.3 4.9 4.9 0 0 1-.9.1Z" fill="#fff"/>
</svg>
