<svg id="Layer_2" data-name="Layer 2" xmlns="http://www.w3.org/2000/svg" viewBox="0 0 140 140"><path d="M71,98.57a4.77,4.77,0,0,1-4.77-4.77V83.26c-.2-10.43,6-20.05,16.17-25.17l.15-.07C89.19,54.61,93.31,48.47,93.31,42c0-10.37-10-18.8-22.31-18.8S48.69,31.58,48.69,42a4.77,4.77,0,1,1-9.54,0C39.15,26.32,53.44,13.6,71,13.6S102.85,26.32,102.85,42c0,10.2-6.19,19.65-16.16,24.67l-.16.08c-6.72,3.44-10.81,9.61-10.76,16.21v.42c0,.09,0,.19,0,.29V93.8A4.77,4.77,0,0,1,71,98.57Z" fill="#fff"/><path d="M71,122.4a4.9,4.9,0,0,1-.93-.1,4.67,4.67,0,0,1-.9-.27,5.4,5.4,0,0,1-.82-.44,4.52,4.52,0,0,1-.72-.59,5.3,5.3,0,0,1-.6-.73,5,5,0,0,1-.44-.82,4.79,4.79,0,0,1-.27-.89,4.91,4.91,0,0,1-.09-.94,4.78,4.78,0,0,1,5.7-4.68,5.53,5.53,0,0,1,.9.28,4.64,4.64,0,0,1,.82.44,4.52,4.52,0,0,1,.72.59,4.76,4.76,0,0,1,.6.73,4.6,4.6,0,0,1,.44.82,4.79,4.79,0,0,1,.27.89,4.88,4.88,0,0,1,.09.93,5,5,0,0,1-.09.94,4.79,4.79,0,0,1-.27.89,5,5,0,0,1-.44.82,5.3,5.3,0,0,1-.6.73,4.52,4.52,0,0,1-.72.59,5.4,5.4,0,0,1-.82.44,4.67,4.67,0,0,1-.9.27A4.9,4.9,0,0,1,71,122.4Z" fill="#fff"/></svg>