<svg xmlns="http://www.w3.org/2000/svg" viewBox="0 0 140 140">
	<path d="M70.2 74.1a4.8 4.8 0 0 1-4.8-4.6c-1-4.8-21.1-23-42.2-23a4.8 4.8 0 0 1 0-9.6C47.5 37 75 58.1 75 69.3a4.8 4.8 0 0 1-4.8 4.8Zm-4.8-4.6Zm0-.2Z" fill="#fff"/>
	<path d="M17.4 87.8a4.7 4.7 0 0 1-3.4-1.4 4.8 4.8 0 0 1 0-6.7C31.3 62.4 65.6 58 73.6 66a4.8 4.8 0 0 1-6.7 6.8c-4.1-2.6-31.2-1.3-46.1 13.6a4.7 4.7 0 0 1-3.4 1.4Zm49.6-15Zm-.1-.1Z" fill="#fff"/>
	<path d="M42.6 121.1a4.8 4.8 0 0 1-4.8-4.7c0-24.4 21.1-51.8 32.4-51.8a4.8 4.8 0 0 1 .1 9.5c-4.7 1-23 21.1-23 42.3a4.8 4.8 0 0 1-4.7 4.7Zm27.6-47Z" fill="#fff"/>
	<path d="M83.9 126.9a4.8 4.8 0 0 1-3.4-1.4C63.3 108.3 58.8 73.9 66.8 66a4.8 4.8 0 0 1 6.9 6.7c-2.6 4-1.4 31.1 13.6 46a4.8 4.8 0 0 1-3.4 8.2ZM73.6 72.7Zm0-.1" fill="#fff"/>
	<path d="M117.2 101.7c-24.4 0-51.8-21.1-51.8-32.4a4.8 4.8 0 0 1 9.6-.1c1 4.7 21.1 23 42.3 23a4.8 4.8 0 0 1 0 9.5ZM75 69.3Zm0-.2" fill="#fff"/>
	<path d="M81 76.5c-6.4 0-11.7-1.3-14.2-3.8a4.8 4.8 0 0 1 6.7-6.8c4 2.6 31.1 1.3 46-13.7a4.8 4.8 0 0 1 6.8 6.8 69.3 69.3 0 0 1-45.2 17.5ZM73.6 66Zm0-.1" fill="#fff"/>
	<path d="M70.2 74.1a4.8 4.8 0 0 1-.2-9.5c4.8-1.1 23-21.2 23-42.3a4.8 4.8 0 0 1 9.6 0c0 24.4-21.2 51.8-32.4 51.8Zm-.2-9.5Zm.2 0Z" fill="#fff"/>
	<path d="M70.2 74.1a4.8 4.8 0 0 1-3.5-8C69.3 62 68 34.9 53.1 20a4.8 4.8 0 0 1 6.7-6.8c17.3 17.2 21.7 51.5 13.8 59.5a4.8 4.8 0 0 1-3.4 1.4Zm-3.5-8Zm.1-.1Z" fill="#fff"/>
</svg>
