<svg id="Layer_2" data-name="Layer 2" xmlns="http://www.w3.org/2000/svg" viewBox="0 0 140 140"><path d="M56.65,127.94H16.78A4.78,4.78,0,0,1,12,123.16V83.29a4.78,4.78,0,0,1,9.55,0v35.1h35.1a4.78,4.78,0,0,1,0,9.55Z" fill="#fff"/><path d="M16.78,61.48A4.77,4.77,0,0,1,12,56.71V16.84a4.78,4.78,0,0,1,4.78-4.78H56.65a4.78,4.78,0,0,1,0,9.55H21.55v35.1A4.77,4.77,0,0,1,16.78,61.48Z" fill="#fff"/><path d="M123.1,61.48a4.76,4.76,0,0,1-4.77-4.77V21.61H83.23a4.78,4.78,0,0,1,0-9.55H123.1a4.77,4.77,0,0,1,4.77,4.78V56.71A4.76,4.76,0,0,1,123.1,61.48Z" fill="#fff"/><path d="M123.1,127.94H83.23a4.78,4.78,0,0,1,0-9.55h35.1V83.29a4.77,4.77,0,0,1,9.54,0v39.87A4.77,4.77,0,0,1,123.1,127.94Z" fill="#fff"/><circle cx="69.94" cy="70" r="33.23" fill="#fff"/></svg>