<svg xmlns="http://www.w3.org/2000/svg" viewBox="0 0 140 140">
	<path d="M56.6 128H16.9a4.8 4.8 0 0 1-4.8-4.8v-40a4.8 4.8 0 0 1 9.6 0v35.2h35a4.8 4.8 0 0 1 0 9.5ZM16.9 61.4a4.8 4.8 0 0 1-4.8-4.8V16.8a4.8 4.8 0 0 1 4.8-4.7h39.8a4.8 4.8 0 0 1 0 9.5h-35v35.1a4.8 4.8 0 0 1-4.8 4.8Zm106.3 0a4.8 4.8 0 0 1-4.8-4.8v-35h-35a4.8 4.8 0 0 1 0-9.6H123a4.8 4.8 0 0 1 4.8 4.7v40a4.8 4.8 0 0 1-4.8 4.7Zm0 66.4h-40a4.8 4.8 0 0 1 0-9.5h35.1v-35a4.8 4.8 0 0 1 9.6 0v39.9a4.8 4.8 0 0 1-4.8 4.7Z" fill="#fff"/>
	<circle cx="69.9" cy="70" r="33.2" fill="#fff"/>
</svg>
