<svg id="Layer_2" data-name="Layer 2" xmlns="http://www.w3.org/2000/svg" viewBox="0 0 140 140"><path d="M45.72,119.46H20.91a4.78,4.78,0,0,1-4.78-4.78V92.82a4.78,4.78,0,0,1,4.78-4.77H45.72a4.78,4.78,0,0,1,4.77,4.77v21.86A4.78,4.78,0,0,1,45.72,119.46Zm-20-9.55H41V97.6H25.68Z" fill="#fff"/><path d="M45.72,52H20.91a4.78,4.78,0,0,1-4.78-4.77V25.32a4.78,4.78,0,0,1,4.78-4.78H45.72a4.78,4.78,0,0,1,4.77,4.78V47.18A4.78,4.78,0,0,1,45.72,52Zm-20-9.55H41V30.09H25.68Z" fill="#fff"/><path d="M45.72,85.7H20.91a4.77,4.77,0,0,1-4.78-4.77V59.07a4.77,4.77,0,0,1,4.78-4.77H45.72a4.77,4.77,0,0,1,4.77,4.77V80.93A4.77,4.77,0,0,1,45.72,85.7Zm-20-9.54H41V63.84H25.68Z" fill="#fff"/><path d="M83.16,119.46H58.34a4.78,4.78,0,0,1-4.77-4.78V92.82a4.78,4.78,0,0,1,4.77-4.77H83.16a4.78,4.78,0,0,1,4.77,4.77v21.86A4.78,4.78,0,0,1,83.16,119.46Zm-20-9.55H78.38V97.6H63.12Z" fill="#fff"/><path d="M83.16,52H58.34a4.78,4.78,0,0,1-4.77-4.77V25.32a4.78,4.78,0,0,1,4.77-4.78H83.16a4.78,4.78,0,0,1,4.77,4.78V47.18A4.78,4.78,0,0,1,83.16,52Zm-20-9.55H78.38V30.09H63.12Z" fill="#fff"/><path d="M83.16,85.7H58.34a4.77,4.77,0,0,1-4.77-4.77V59.07a4.77,4.77,0,0,1,4.77-4.77H83.16a4.77,4.77,0,0,1,4.77,4.77V80.93A4.77,4.77,0,0,1,83.16,85.7Zm-20-9.54H78.38V63.84H63.12Z" fill="#fff"/><path d="M120.6,119.46H95.78A4.78,4.78,0,0,1,91,114.68V92.82a4.78,4.78,0,0,1,4.77-4.77H120.6a4.78,4.78,0,0,1,4.77,4.77v21.86A4.78,4.78,0,0,1,120.6,119.46Zm-20-9.55h15.27V97.6H100.55Z" fill="#fff"/><path d="M120.6,52H95.78A4.78,4.78,0,0,1,91,47.18V25.32a4.78,4.78,0,0,1,4.77-4.78H120.6a4.78,4.78,0,0,1,4.77,4.78V47.18A4.78,4.78,0,0,1,120.6,52Zm-20-9.55h15.27V30.09H100.55Z" fill="#fff"/><path d="M120.6,85.7H95.78A4.77,4.77,0,0,1,91,80.93V59.07a4.77,4.77,0,0,1,4.77-4.77H120.6a4.77,4.77,0,0,1,4.77,4.77V80.93A4.77,4.77,0,0,1,120.6,85.7Zm-20-9.54h15.27V63.84H100.55Z" fill="#fff"/></svg>