<svg xmlns="http://www.w3.org/2000/svg" viewBox="0 0 140 140">
	<path d="M114.3 101.3c-24 0-36-7-47.7-13.9a73.2 73.2 0 0 0-42.9-12.6 4.8 4.8 0 0 1 0-9.6c24 0 36 7.1 47.7 14C82.4 85.7 93 92 114.3 92a4.8 4.8 0 0 1 0 9.5Z" fill="#fff"/>
	<path d="M23.7 74.8a4.8 4.8 0 0 1 0-9.6c21.4 0 31.8-6.1 42.9-12.6 11.7-6.9 23.7-14 47.7-14a4.8 4.8 0 0 1 0 9.6c-21.4 0-31.8 6.1-42.9 12.6-11.7 6.9-23.7 14-47.7 14Z" fill="#fff"/>
	<path d="M23.7 81.4a4.8 4.8 0 0 1-4.7-4.8V63.5a4.8 4.8 0 0 1 9.5 0v13.3a4.8 4.8 0 0 1-4.8 4.7Zm90.6-26.6a4.8 4.8 0 0 1-4.8-4.7V36.8a4.8 4.8 0 1 1 9.5 0V50a4.8 4.8 0 0 1-4.7 4.7Zm0 53.2a4.8 4.8 0 0 1-4.8-4.8V90a4.8 4.8 0 1 1 9.5 0v13.3a4.8 4.8 0 0 1-4.7 4.8Z" fill="#fff"/>
</svg>
