<svg id="Layer_2" data-name="Layer 2" xmlns="http://www.w3.org/2000/svg" viewBox="0 0 140 140"><path d="M114.26,101.35c-23.93,0-36-7.09-47.68-13.94-11.06-6.5-21.51-12.64-42.84-12.64a4.77,4.77,0,0,1,0-9.54c23.93,0,36,7.09,47.68,14,11.06,6.49,21.51,12.63,42.84,12.63a4.77,4.77,0,0,1,0,9.54Z" fill="#fff"/><path d="M23.74,74.77a4.77,4.77,0,0,1,0-9.54c21.33,0,31.78-6.14,42.84-12.64,11.68-6.85,23.75-13.94,47.68-13.94a4.77,4.77,0,0,1,0,9.54c-21.33,0-31.78,6.14-42.84,12.63C59.74,67.68,47.67,74.77,23.74,74.77Z" fill="#fff"/><path d="M23.74,81.42A4.78,4.78,0,0,1,19,76.65V63.35a4.77,4.77,0,0,1,9.54,0v13.3A4.77,4.77,0,0,1,23.74,81.42Z" fill="#fff"/><path d="M114.26,54.84a4.77,4.77,0,0,1-4.77-4.78V36.77a4.77,4.77,0,1,1,9.54,0V50.06A4.78,4.78,0,0,1,114.26,54.84Z" fill="#fff"/><path d="M114.26,108a4.77,4.77,0,0,1-4.77-4.77V89.94a4.77,4.77,0,1,1,9.54,0v13.29A4.78,4.78,0,0,1,114.26,108Z" fill="#fff"/></svg>