<svg id="Layer_2" data-name="Layer 2" xmlns="http://www.w3.org/2000/svg" viewBox="0 0 140 140"><path d="M116.26,60.35a4.76,4.76,0,0,1-4.77-4.77V42.29a4.77,4.77,0,1,1,9.54,0V55.58A4.77,4.77,0,0,1,116.26,60.35Z" fill="#fff"/><path d="M25.74,60.35A4.77,4.77,0,0,1,21,55.58V42.29a4.77,4.77,0,0,1,9.54,0V55.58A4.76,4.76,0,0,1,25.74,60.35Z" fill="#fff"/><path d="M25.74,113.52A4.78,4.78,0,0,1,21,108.74V95.45a4.77,4.77,0,0,1,9.54,0v13.29A4.77,4.77,0,0,1,25.74,113.52Z" fill="#fff"/><path d="M25.74,106.87a4.77,4.77,0,1,1,0-9.54c20.43,0,30.72-12.1,41.63-24.91C72.87,66,78.74,59.07,86.19,53.71H25.74a4.78,4.78,0,0,1,0-9.55h90.52a4.78,4.78,0,0,1,0,9.55c-20.43,0-30.72,12.1-41.63,24.9C63.36,91.86,50.58,106.87,25.74,106.87Z" fill="#fff"/></svg>