<svg xmlns="http://www.w3.org/2000/svg" viewBox="0 0 140 140">
	<path d="M116.3 60.4a4.8 4.8 0 0 1-4.8-4.8V42.3a4.8 4.8 0 1 1 9.5 0v13.3a4.8 4.8 0 0 1-4.7 4.8Zm-90.6 0a4.8 4.8 0 0 1-4.7-4.8V42.3a4.8 4.8 0 0 1 9.5 0v13.3a4.8 4.8 0 0 1-4.8 4.8Zm0 53.1a4.8 4.8 0 0 1-4.7-4.8V95.4a4.8 4.8 0 0 1 9.5 0v13.3a4.8 4.8 0 0 1-4.8 4.8Z" fill="#fff"/>
	<path d="M25.7 106.9a4.8 4.8 0 1 1 0-9.6c20.5 0 30.8-12 41.7-24.9 5.5-6.4 11.3-13.3 18.8-18.7H25.7a4.8 4.8 0 0 1 0-9.5h90.6a4.8 4.8 0 0 1 0 9.5c-20.5 0-30.8 12.1-41.7 25-11.2 13.2-24 28.2-48.9 28.2Z" fill="#fff"/>
</svg>
