<svg id="Layer_2" data-name="Layer 2" xmlns="http://www.w3.org/2000/svg" viewBox="0 0 140 140"><path d="M5.71,68a4.23,4.23,0,0,1-.94-.1,4.79,4.79,0,0,1-.89-.27,4.6,4.6,0,0,1-.82-.44,4.19,4.19,0,0,1-.73-.59,4.6,4.6,0,0,1-.59-.73A4.32,4.32,0,0,1,1.3,65,4.79,4.79,0,0,1,1,64.13a4.29,4.29,0,0,1-.1-.94,4.2,4.2,0,0,1,.1-.93,4.79,4.79,0,0,1,.27-.89,4.4,4.4,0,0,1,.44-.83,4.52,4.52,0,0,1,.59-.72,4.19,4.19,0,0,1,.73-.59,4,4,0,0,1,.82-.44,5.73,5.73,0,0,1,.89-.28,4.82,4.82,0,0,1,4.31,1.31,4.52,4.52,0,0,1,.59.72,4.4,4.4,0,0,1,.44.83,4.79,4.79,0,0,1,.27.89,4.2,4.2,0,0,1,.1.93,4.29,4.29,0,0,1-.1.94,4.79,4.79,0,0,1-.27.89,4.32,4.32,0,0,1-.44.82,4.6,4.6,0,0,1-.59.73,4.19,4.19,0,0,1-.73.59,4.6,4.6,0,0,1-.82.44,4.79,4.79,0,0,1-.89.27A4.2,4.2,0,0,1,5.71,68Z" fill="#fff"/><path d="M37.85,105.84a4.88,4.88,0,0,1-.93-.09,4.83,4.83,0,0,1-.89-.28,3.89,3.89,0,0,1-.83-.44,4.52,4.52,0,0,1-.72-.59,5.21,5.21,0,0,1-.6-.72,5,5,0,0,1-.43-.83,4.83,4.83,0,0,1-.28-.89,4.88,4.88,0,0,1-.09-.93,4.81,4.81,0,0,1,1.4-3.38,4.52,4.52,0,0,1,.72-.59,5.06,5.06,0,0,1,.83-.44,4.79,4.79,0,0,1,.89-.27,4.9,4.9,0,0,1,1.87,0,4.79,4.79,0,0,1,.89.27,5,5,0,0,1,.82.44,4.45,4.45,0,0,1,1.32,1.32,5,5,0,0,1,.44.82,4.79,4.79,0,0,1,.27.89,5,5,0,0,1,.1.94,4.78,4.78,0,0,1-4.78,4.77Z" fill="#fff"/><path d="M69.65,92.22a4.81,4.81,0,0,1-.93-.09,4.67,4.67,0,0,1-.9-.27,5,5,0,0,1-.82-.44,5.3,5.3,0,0,1-.73-.6,4.78,4.78,0,0,1,0-6.74,5.3,5.3,0,0,1,.73-.6,5,5,0,0,1,.82-.44,4.67,4.67,0,0,1,.9-.27,4.77,4.77,0,1,1,.93,9.45Z" fill="#fff"/><path d="M102.15,42.07a4.78,4.78,0,0,1-4.78-4.78,4.9,4.9,0,0,1,.1-.93,4.79,4.79,0,0,1,.27-.89,4.6,4.6,0,0,1,.44-.82,4.19,4.19,0,0,1,.59-.73,4.6,4.6,0,0,1,.73-.59,4.32,4.32,0,0,1,.82-.44,5.73,5.73,0,0,1,.89-.28,4.9,4.9,0,0,1,1.87,0,5.73,5.73,0,0,1,.89.28,4.4,4.4,0,0,1,.83.44,4.52,4.52,0,0,1,.72.59,4.76,4.76,0,0,1,.6.73,4.56,4.56,0,0,1,.43.82,5.73,5.73,0,0,1,.28.89,4.9,4.9,0,0,1,0,1.87,5.73,5.73,0,0,1-.28.89,4.92,4.92,0,0,1-.43.82,5.3,5.3,0,0,1-.6.73,4.52,4.52,0,0,1-.72.59,5.06,5.06,0,0,1-.83.44,4.79,4.79,0,0,1-.89.27A4.2,4.2,0,0,1,102.15,42.07Z" fill="#fff"/><path d="M134.29,68a4.2,4.2,0,0,1-.93-.1,4.79,4.79,0,0,1-.89-.27,4.6,4.6,0,0,1-.82-.44,4.19,4.19,0,0,1-.73-.59,4.6,4.6,0,0,1-.59-.73,4.32,4.32,0,0,1-.44-.82,5.73,5.73,0,0,1-.28-.89,5,5,0,0,1-.09-.94,4.88,4.88,0,0,1,.09-.93,5.73,5.73,0,0,1,.28-.89,4.4,4.4,0,0,1,.44-.83,4.52,4.52,0,0,1,.59-.72,4.19,4.19,0,0,1,.73-.59,4,4,0,0,1,.82-.44,5.73,5.73,0,0,1,.89-.28,4.82,4.82,0,0,1,4.31,1.31,4.52,4.52,0,0,1,.59.72,5.06,5.06,0,0,1,.44.83,4.79,4.79,0,0,1,.27.89,4.42,4.42,0,0,1,0,1.87,4.79,4.79,0,0,1-.27.89,5,5,0,0,1-.44.82,4.45,4.45,0,0,1-1.32,1.32,5,5,0,0,1-.82.44,4.79,4.79,0,0,1-.89.27A4.29,4.29,0,0,1,134.29,68Z" fill="#fff"/><path d="M37.43,102.88,4.56,64.16a1.5,1.5,0,0,1,2.29-1.94l31.43,37,30.36-13,33.15-51.17,33.45,27a1.5,1.5,0,1,1-1.89,2.33L102.5,39.51,70.66,88.65Z" fill="#fff"/></svg>