<svg xmlns="http://www.w3.org/2000/svg" viewBox="0 0 140 140">
	<path d="M5.7 68a4.2 4.2 0 0 1-1-.1 4.8 4.8 0 0 1-.8-.3 4.6 4.6 0 0 1-.8-.4 4.2 4.2 0 0 1-.8-.6 4.6 4.6 0 0 1-.6-.7 4.3 4.3 0 0 1-.4-.9 4.8 4.8 0 0 1-.3-.9 4.3 4.3 0 0 1-.1-1 4.2 4.2 0 0 1 .1-.8 4.8 4.8 0 0 1 .3-1 4.4 4.4 0 0 1 .4-.8 4.5 4.5 0 0 1 .6-.7 4.2 4.2 0 0 1 .7-.6 4 4 0 0 1 .8-.4 5.7 5.7 0 0 1 1-.3A4.8 4.8 0 0 1 9 59.8a4.5 4.5 0 0 1 .6.7 4.4 4.4 0 0 1 .5.9 4.8 4.8 0 0 1 .2.9 4.2 4.2 0 0 1 .1.9 4.3 4.3 0 0 1 0 1 4.8 4.8 0 0 1-.3.8 4.3 4.3 0 0 1-.5.8 4.6 4.6 0 0 1-.6.8 4.2 4.2 0 0 1-.7.6 4.6 4.6 0 0 1-.8.4 4.8 4.8 0 0 1-.9.3 4.2 4.2 0 0 1-.9.1Zm32.1 37.8a4.9 4.9 0 0 1-.9 0 4.8 4.8 0 0 1-.9-.3 3.9 3.9 0 0 1-.8-.5 4.5 4.5 0 0 1-.7-.6 5.2 5.2 0 0 1-.6-.7 5 5 0 0 1-.4-.8 4.8 4.8 0 0 1-.3-.9 4.9 4.9 0 0 1-.1-1 4.8 4.8 0 0 1 1.4-3.3 4.5 4.5 0 0 1 .7-.6 5 5 0 0 1 .8-.4 4.8 4.8 0 0 1 1-.3 4.9 4.9 0 0 1 1.8 0 4.8 4.8 0 0 1 .9.3 5 5 0 0 1 .8.4 4.5 4.5 0 0 1 1.3 1.3 5 5 0 0 1 .5.8 4.8 4.8 0 0 1 .2 1 5 5 0 0 1 .1.9 4.8 4.8 0 0 1-4.8 4.7Zm31.9-13.6a4.8 4.8 0 0 1-1 0 4.7 4.7 0 0 1-.9-.3 5 5 0 0 1-.8-.5 5.3 5.3 0 0 1-.7-.6 4.8 4.8 0 0 1 0-6.7 5.3 5.3 0 0 1 .7-.6 5 5 0 0 1 .8-.5 4.7 4.7 0 0 1 1-.2 4.8 4.8 0 1 1 .9 9.4Zm32.5-50.1a4.8 4.8 0 0 1-4.8-4.8 4.9 4.9 0 0 1 0-1 4.8 4.8 0 0 1 .3-.8 4.6 4.6 0 0 1 .5-.9 4.2 4.2 0 0 1 .6-.7 4.6 4.6 0 0 1 .7-.6 4.3 4.3 0 0 1 .8-.4 5.7 5.7 0 0 1 1-.3 4.9 4.9 0 0 1 1.8 0 5.7 5.7 0 0 1 .9.3 4.4 4.4 0 0 1 .8.4 4.5 4.5 0 0 1 .7.6 4.8 4.8 0 0 1 .6.8 4.6 4.6 0 0 1 .4.8 5.7 5.7 0 0 1 .3.9 4.9 4.9 0 0 1 0 1.8 5.7 5.7 0 0 1-.2 1 5 5 0 0 1-.5.7 5.3 5.3 0 0 1-.6.8 4.5 4.5 0 0 1-.7.6 5 5 0 0 1-.8.4 4.8 4.8 0 0 1-1 .3 4.2 4.2 0 0 1-.8 0Zm32 25.9a4.2 4.2 0 0 1-.8-.1 4.8 4.8 0 0 1-1-.3 4.6 4.6 0 0 1-.8-.4 4.2 4.2 0 0 1-.7-.6 4.6 4.6 0 0 1-.6-.7 4.3 4.3 0 0 1-.4-.9 5.7 5.7 0 0 1-.3-.8 5 5 0 0 1 0-1 4.9 4.9 0 0 1 0-1 5.7 5.7 0 0 1 .3-.8 4.4 4.4 0 0 1 .4-.8 4.5 4.5 0 0 1 .6-.7 4.2 4.2 0 0 1 .8-.6 4 4 0 0 1 .8-.5 5.7 5.7 0 0 1 .9-.3 4.8 4.8 0 0 1 4.3 1.4 4.5 4.5 0 0 1 .6.7 5 5 0 0 1 .4.8 4.8 4.8 0 0 1 .3.9 4.4 4.4 0 0 1 0 1.9 4.8 4.8 0 0 1-.3.9 5 5 0 0 1-.4.8 4.5 4.5 0 0 1-1.4 1.3 5 5 0 0 1-.8.4 4.8 4.8 0 0 1-.9.3 4.3 4.3 0 0 1-1 .1Z" fill="#fff"/>
	<path d="M37.4 102.9 4.6 64.2a1.5 1.5 0 0 1 2.3-2l31.4 37 30.3-13L101.8 35l33.4 27a1.5 1.5 0 1 1-1.8 2.4l-30.9-24.9-31.8 49.2Z" fill="#fff"/>
</svg>
