<svg xmlns="http://www.w3.org/2000/svg" viewBox="0 0 140 140">
	<path d="M70.2 111.2c-14 0-29.4-6.5-45.8-19.3a151.3 151.3 0 0 1-20.2-19 4.4 4.4 0 0 1 0-5.7c1.3-1.6 32.3-38.4 65.7-38.4 14.1 0 29.6 6.5 46 19.3a151.1 151.1 0 0 1 20.3 19 4.4 4.4 0 0 1 0 5.7 151.3 151.3 0 0 1-20.2 19c-16.4 12.9-31.8 19.4-45.8 19.4ZM13.5 70c7.9 8.4 32.7 32.4 56.7 32.4s48.7-24 56.7-32.4c-8-8.4-32.8-32.4-57-32.4S21.2 61.6 13.5 70Z" fill="#fff"/>
	<path d="M69.8 92.8A22.8 22.8 0 1 1 92.6 70a22.8 22.8 0 0 1-22.8 22.8Zm0-36.8a14 14 0 1 0 14 14 14 14 0 0 0-14-14Z" fill="#fff"/>
</svg>
