<svg id="Layer_2" data-name="Layer 2" xmlns="http://www.w3.org/2000/svg" viewBox="0 0 140 140"><path d="M70.18,111.19c-14,0-29.4-6.5-45.78-19.33a151.32,151.32,0,0,1-20.21-19,4.4,4.4,0,0,1,0-5.67c1.31-1.56,32.34-38.37,65.68-38.37,14.14,0,29.64,6.5,46.08,19.32a151.12,151.12,0,0,1,20.26,19,4.39,4.39,0,0,1,0,5.7,151.32,151.32,0,0,1-20.21,19C99.58,104.69,84.17,111.19,70.18,111.19ZM13.47,70c7.9,8.36,32.72,32.42,56.71,32.42s48.74-24,56.68-32.39c-7.94-8.39-32.78-32.39-57-32.39S21.23,61.59,13.47,70Z" fill="#fff"/><path d="M69.83,92.8A22.8,22.8,0,1,1,92.63,70,22.82,22.82,0,0,1,69.83,92.8Zm0-36.79a14,14,0,1,0,14,14A14,14,0,0,0,69.83,56Z" fill="#fff"/></svg>