<svg xmlns="http://www.w3.org/2000/svg" viewBox="0 0 140 140">
	<path d="M48.3 48.2H21.6a4.8 4.8 0 0 1 0-9.6h26.6a4.8 4.8 0 0 1 0 9.6Zm2.6 13.3H37.6a4.8 4.8 0 1 1 0-9.6H51a4.8 4.8 0 1 1 0 9.6ZM71 88H31a4.8 4.8 0 1 1 0-9.6h39.9a4.8 4.8 0 0 1 0 9.6Zm4.5 13.3H62.1a4.8 4.8 0 0 1 0-9.6h13.3a4.8 4.8 0 1 1 0 9.6Zm2.1-26.6H51a4.8 4.8 0 0 1 0-9.6h26.6a4.8 4.8 0 1 1 0 9.6Zm36 0h-13.3a4.8 4.8 0 0 1 0-9.6h13.2a4.8 4.8 0 1 1 0 9.6ZM106.7 88H93.5a4.8 4.8 0 1 1 0-9.6h13.3a4.8 4.8 0 0 1 0 9.6Zm11.5 13.3H105a4.8 4.8 0 0 1 0-9.6h13.3a4.8 4.8 0 0 1 0 9.6Zm-80.7 0H24.4a4.8 4.8 0 0 1 0-9.6h13.3a4.8 4.8 0 1 1 0 9.6Zm66.5-40H77.5a4.8 4.8 0 1 1 0-9.5h26.6a4.8 4.8 0 1 1 0 9.6Zm-23.8-13H67a4.8 4.8 0 1 1 0-9.6h13.3a4.8 4.8 0 0 1 0 9.6Zm29.5 0H96.4a4.8 4.8 0 1 1 0-9.6h13.3a4.8 4.8 0 1 1 0 9.6Z" fill="#fff"/>
</svg>
